HIERARCHY
ROOT Hips
{
	OFFSET 0.000000 103.266502 0.000000
	CHANNELS 6 Xposition Yposition Zposition Xrotation Yrotation Zrotation 
	JOINT Spine
	{
		OFFSET -0.002400 12.777504 0.315300
		CHANNELS 3 Xrotation Yrotation Zrotation
		JOINT Spine1
		{
			OFFSET -0.002067 5.816869 0.032633
			CHANNELS 3 Xrotation Yrotation Zrotation
			JOINT Spine1_split
			{
				OFFSET -0.002067 5.816869 0.032633
				CHANNELS 3 Xrotation Yrotation Zrotation
				JOINT Spine2
				{
					OFFSET -0.002067 5.816869 0.032633
					CHANNELS 3 Xrotation Yrotation Zrotation
					JOINT Neck
					{
						OFFSET -0.003700 21.199493 -0.826900
						CHANNELS 3 Xrotation Yrotation Zrotation
						JOINT Head
						{
							OFFSET 0.000000 20.442200 4.834800
							CHANNELS 3 Xrotation Yrotation Zrotation
							JOINT HeadTop_End
							{
								OFFSET 0.000000 34.668396 4.968400
								CHANNELS 3 Xrotation Yrotation Zrotation
								End Site
								{
									OFFSET 0.000000 0.000000 0.000000
								}
							}
						}
					}
					JOINT LeftShoulder
					{
						OFFSET 3.288150 8.794197 -1.372250
						CHANNELS 3 Xrotation Yrotation Zrotation
						JOINT LeftShoulder_split
						{
							OFFSET 3.288150 8.794197 -1.372250
							CHANNELS 3 Xrotation Yrotation Zrotation
							JOINT LeftArm
							{
								OFFSET 11.953299 -2.279007 -0.146200
								CHANNELS 3 Xrotation Yrotation Zrotation
								JOINT LeftForeArm
								{
									OFFSET 18.448900 0.000000 0.000000
									CHANNELS 3 Xrotation Yrotation Zrotation
									JOINT LeftHand
									{
										OFFSET 29.527798 0.000000 0.000000
										CHANNELS 3 Xrotation Yrotation Zrotation
										JOINT LeftHandThumb1
										{
											OFFSET 10.739754 -2.369614 9.225399
											CHANNELS 3 Xrotation Yrotation Zrotation
											JOINT LeftHandThumb2
											{
												OFFSET 4.926170 -2.844131 2.844125
												CHANNELS 3 Xrotation Yrotation Zrotation
												JOINT LeftHandThumb3
												{
													OFFSET 4.614891 -2.664413 2.664409
													CHANNELS 3 Xrotation Yrotation Zrotation
													JOINT LeftHandThumb4
													{
														OFFSET 4.432465 -2.559082 2.559083
														CHANNELS 3 Xrotation Yrotation Zrotation
														End Site
														{
															OFFSET 0.000000 0.000000 0.000000
														}
													}
												}
											}
										}
										JOINT LeftHandIndex1
										{
											OFFSET 26.467674 0.187653 6.405298
											CHANNELS 3 Xrotation Yrotation Zrotation
											JOINT LeftHandIndex2
											{
												OFFSET 8.792900 0.000000 0.000000
												CHANNELS 3 Xrotation Yrotation Zrotation
												JOINT LeftHandIndex3
												{
													OFFSET 10.075203 0.000000 0.000000
													CHANNELS 3 Xrotation Yrotation Zrotation
													End Site
													{
														OFFSET 0.000000 0.000000 0.000000
													}
												}
											}
										}
										JOINT LeftHandMiddle1
										{
											OFFSET 25.764404 0.000000 0.000000
											CHANNELS 3 Xrotation Yrotation Zrotation
											JOINT LeftHandMiddle2
											{
												OFFSET 9.393974 0.000000 0.000000
												CHANNELS 3 Xrotation Yrotation Zrotation
												JOINT LeftHandMiddle3
												{
													OFFSET 10.771950 0.000000 0.000000
													CHANNELS 3 Xrotation Yrotation Zrotation
													End Site
													{
														OFFSET 0.000000 0.000000 0.000000
													}
												}
											}
										}
										JOINT LeftHandRing1
										{
											OFFSET 24.660927 0.144547 -6.225808
											CHANNELS 3 Xrotation Yrotation Zrotation
											JOINT LeftHandRing2
											{
												OFFSET 9.393799 0.000000 0.000000
												CHANNELS 3 Xrotation Yrotation Zrotation
												JOINT LeftHandRing3
												{
													OFFSET 9.928497 0.000000 0.000000
													CHANNELS 3 Xrotation Yrotation Zrotation
													End Site
													{
														OFFSET 0.000000 0.000000 0.000000
													}
												}
											}
										}
										JOINT LeftHandPinky1
										{
											OFFSET 23.655350 0.125290 -12.815412
											CHANNELS 3 Xrotation Yrotation Zrotation
											JOINT LeftHandPinky2
											{
												OFFSET 8.425102 0.000000 0.000000
												CHANNELS 3 Xrotation Yrotation Zrotation
												JOINT LeftHandPinky3
												{
													OFFSET 8.147003 0.000000 0.000000
													CHANNELS 3 Xrotation Yrotation Zrotation
													End Site
													{
														OFFSET 0.000000 0.000000 0.000000
													}
												}
											}
										}
									}
								}
							}
						}
					}
					JOINT RightShoulder
					{
						OFFSET -3.249400 8.794197 -1.372250
						CHANNELS 3 Xrotation Yrotation Zrotation
						JOINT RightShoulder_split
						{
							OFFSET -3.249400 8.794197 -1.372250
							CHANNELS 3 Xrotation Yrotation Zrotation
							JOINT RightArm
							{
								OFFSET -11.953299 -2.279007 -0.146200
								CHANNELS 3 Xrotation Yrotation Zrotation
								JOINT RightForeArm
								{
									OFFSET -18.448900 0.000000 0.000000
									CHANNELS 3 Xrotation Yrotation Zrotation
									JOINT RightHand
									{
										OFFSET -29.527802 0.000000 0.000000
										CHANNELS 3 Xrotation Yrotation Zrotation
										JOINT RightHandThumb1
										{
											OFFSET -10.739754 -2.369614 9.225399
											CHANNELS 3 Xrotation Yrotation Zrotation
											JOINT RightHandThumb2
											{
												OFFSET -4.926170 -2.844131 2.844125
												CHANNELS 3 Xrotation Yrotation Zrotation
												JOINT RightHandThumb3
												{
													OFFSET -4.614891 -2.664413 2.664409
													CHANNELS 3 Xrotation Yrotation Zrotation
													JOINT RightHandThumb4
													{
														OFFSET -4.432465 -2.559082 2.559083
														CHANNELS 3 Xrotation Yrotation Zrotation
														End Site
														{
															OFFSET 0.000000 0.000000 0.000000
														}
													}
												}
											}
										}
										JOINT RightHandIndex1
										{
											OFFSET -26.467674 0.187653 6.405298
											CHANNELS 3 Xrotation Yrotation Zrotation
											JOINT RightHandIndex2
											{
												OFFSET -8.792900 0.000000 0.000000
												CHANNELS 3 Xrotation Yrotation Zrotation
												JOINT RightHandIndex3
												{
													OFFSET -10.075203 0.000000 0.000000
													CHANNELS 3 Xrotation Yrotation Zrotation
													End Site
													{
														OFFSET 0.000000 0.000000 0.000000
													}
												}
											}
										}
										JOINT RightHandMiddle1
										{
											OFFSET -25.764404 0.000000 0.000000
											CHANNELS 3 Xrotation Yrotation Zrotation
											JOINT RightHandMiddle2
											{
												OFFSET -9.393974 0.000000 0.000000
												CHANNELS 3 Xrotation Yrotation Zrotation
												JOINT RightHandMiddle3
												{
													OFFSET -10.771950 0.000000 0.000000
													CHANNELS 3 Xrotation Yrotation Zrotation
													End Site
													{
														OFFSET 0.000000 0.000000 0.000000
													}
												}
											}
										}
										JOINT RightHandRing1
										{
											OFFSET -24.660927 0.144547 -6.225808
											CHANNELS 3 Xrotation Yrotation Zrotation
											JOINT RightHandRing2
											{
												OFFSET -9.393799 0.000000 0.000000
												CHANNELS 3 Xrotation Yrotation Zrotation
												JOINT RightHandRing3
												{
													OFFSET -9.928497 0.000000 0.000000
													CHANNELS 3 Xrotation Yrotation Zrotation
													End Site
													{
														OFFSET 0.000000 0.000000 0.000000
													}
												}
											}
										}
										JOINT RightHandPinky1
										{
											OFFSET -23.655350 0.125290 -12.815412
											CHANNELS 3 Xrotation Yrotation Zrotation
											JOINT RightHandPinky2
											{
												OFFSET -8.425102 0.000000 0.000000
												CHANNELS 3 Xrotation Yrotation Zrotation
												JOINT RightHandPinky3
												{
													OFFSET -8.147003 0.000000 0.000000
													CHANNELS 3 Xrotation Yrotation Zrotation
													End Site
													{
														OFFSET 0.000000 0.000000 0.000000
													}
												}
											}
										}
									}
								}
							}
						}
					}
				}
			}
		}
	}
	JOINT LeftUpLeg
	{
		OFFSET 11.394100 -6.187798 -0.413800
		CHANNELS 3 Xrotation Yrotation Zrotation
		JOINT LeftLeg
		{
			OFFSET 0.430247 -32.302673 3.732800
			CHANNELS 3 Xrotation Yrotation Zrotation
			JOINT LeftFoot
			{
				OFFSET -0.430247 -48.264931 -6.423300
				CHANNELS 3 Xrotation Yrotation Zrotation
				JOINT LeftToeBase
				{
					OFFSET 4.230900 -16.068199 23.438400
					CHANNELS 3 Xrotation Yrotation Zrotation
					JOINT LeftToe_End
					{
						OFFSET 4.510700 0.695400 19.974600
						CHANNELS 3 Xrotation Yrotation Zrotation
						End Site
						{
							OFFSET 0.000000 0.000000 0.000000
						}
					}
				}
			}
		}
	}
	JOINT RightUpLeg
	{
		OFFSET -11.333700 -6.187798 -0.413800
		CHANNELS 3 Xrotation Yrotation Zrotation
		JOINT RightLeg
		{
			OFFSET -0.430392 -32.302628 3.733000
			CHANNELS 3 Xrotation Yrotation Zrotation
			JOINT RightFoot
			{
				OFFSET 0.430392 -48.264973 -6.423500
				CHANNELS 3 Xrotation Yrotation Zrotation
				JOINT RightToeBase
				{
					OFFSET -4.230900 -16.068199 23.438400
					CHANNELS 3 Xrotation Yrotation Zrotation
					JOINT RightToe_End
					{
						OFFSET -4.510700 0.695400 19.974600
						CHANNELS 3 Xrotation Yrotation Zrotation
						End Site
						{
							OFFSET 0.000000 0.000000 0.000000
						}
					}
				}
			}
		}
	}
}
MOTION
Frames: 6
Frame Time: 0.016667
1.722674 95.843681 -3.972202 2.057722 -10.443148 -1.799380 21.574802 5.791759 1.365692 2.971768 1.798110 -0.052723 0.000000 0.000000 0.000000 2.970860 1.873018 -0.065766 -3.972171 15.157914 2.233331 6.503284 46.829058 -20.357749 -0.000001 0.000001 -0.000000 1.350318 -32.914016 3.985049 0.000000 0.000000 0.000000 -22.769899 -14.531419 -67.625935 0.000018 -44.195705 -9.360770 -35.824414 -9.101361 -6.762439 -7.471943 1.860687 -7.166934 30.986997 27.310546 -4.510901 83.254651 13.297894 -10.940250 0.000001 -0.000000 0.000000 -4.686320 11.374159 -75.574185 -0.816397 3.074004 -46.874625 -0.000000 -0.000001 -0.000001 1.616615 16.582649 -84.688827 0.018004 0.022028 -72.884833 0.000001 -0.000001 0.000001 -7.765806 20.752796 -77.737798 0.013355 0.983458 -51.003611 0.000000 0.000000 0.000002 -13.924170 3.850340 -44.469832 0.013451 0.024870 -63.895149 -0.000002 -0.000004 -0.000004 9.555406 22.112637 -11.863562 0.000000 0.000000 0.000000 -43.977846 10.617596 77.773001 0.000024 50.389041 2.241402 -28.429786 16.642779 6.785472 9.347167 2.810550 -11.364514 16.169054 -43.266011 15.843558 32.491845 -44.566759 5.661145 -0.000003 -0.000001 -0.000002 17.076786 -0.396528 31.924345 -0.204412 -0.284215 112.811564 0.000000 0.000001 -0.000001 9.205474 -5.035901 102.738080 0.014983 -0.019188 61.018506 -0.000001 0.000000 0.000001 5.569145 -8.935224 107.329080 0.547985 -0.005791 41.263686 0.000000 0.000001 -0.000000 6.511230 -17.148242 98.228017 0.007403 -0.015755 43.845720 0.000000 0.000001 -0.000000 -37.771841 2.112350 7.696465 30.030289 0.762032 2.676703 5.669536 0.019887 -4.322322 -0.380453 -1.204946 -0.210156 0.000000 -0.000000 -0.000000 -17.113782 -10.311198 -13.732162 32.965283 -10.768577 2.615559 -13.770693 -2.106464 12.213931 -1.190620 0.353834 0.637165 -0.000000 -0.000002 -0.000000 
1.818423 95.868416 -3.668819 2.136312 -10.054176 -1.792900 21.529409 5.788765 1.124688 2.951613 1.865109 -0.160994 0.000000 0.000000 0.000000 2.950959 1.939448 -0.175154 -4.099837 15.090193 2.372696 6.098617 46.772900 -19.938094 0.000000 -0.000000 -0.000000 1.306151 -33.191297 4.056575 0.000000 0.000000 0.000000 -22.439084 -14.543433 -67.584776 0.000054 -44.463698 -8.793741 -35.436667 -8.587728 -7.126256 -7.471941 1.860682 -7.166939 30.986997 27.310540 -4.510896 83.254658 13.297896 -10.940250 -0.000006 0.000001 -0.000002 -4.686379 11.374045 -75.571139 -0.816397 3.074001 -46.874625 0.000001 0.000003 -0.000000 1.616622 16.582668 -84.688827 0.018010 0.022040 -72.884867 -0.000001 0.000003 0.000001 -7.759309 20.770699 -77.712731 0.013337 0.983460 -51.003584 0.000001 0.000002 0.000002 -14.013705 3.966972 -44.412619 0.013506 0.024899 -64.018926 -0.000000 -0.000001 -0.000002 9.474260 21.562344 -11.639591 0.000000 0.000000 0.000000 -44.239064 10.875450 78.236791 0.000049 50.076413 2.035000 -28.523174 16.871179 6.756827 9.347167 2.810550 -11.364513 16.169049 -43.266007 15.843561 32.491838 -44.566756 5.661145 -0.000002 -0.000000 -0.000001 17.076788 -0.396528 31.924342 -0.204413 -0.284215 112.811564 0.000000 0.000001 -0.000000 9.205477 -5.035897 102.738073 0.014984 -0.019186 61.018499 0.000000 0.000000 -0.000001 5.569146 -8.935221 107.329080 0.547984 -0.005791 41.263690 0.000000 0.000001 0.000000 6.511227 -17.148242 98.228010 0.007403 -0.015753 43.845716 -0.000000 0.000000 -0.000001 -37.812409 2.112004 7.426828 30.191304 0.528676 2.716655 5.448886 0.028142 -4.179405 -0.389909 -1.257105 -0.209100 -0.000000 -0.000000 -0.000000 -16.665636 -10.382930 -13.790908 32.629880 -11.091776 2.629353 -13.809874 -2.173237 12.472870 -1.185613 0.325710 0.665574 -0.000000 -0.000004 -0.000000 
1.907535 95.887802 -3.366977 2.215500 -9.689790 -1.770973 21.479873 5.766457 0.877239 2.933347 1.930218 -0.273806 0.000000 0.000000 0.000000 2.932953 2.004092 -0.288580 -4.241909 15.007608 2.532610 5.637713 46.665980 -19.447731 -0.000000 -0.000001 0.000000 1.253903 -33.456828 4.134836 0.000000 0.000000 0.000000 -22.076213 -14.578429 -67.548126 0.000011 -44.717040 -8.228664 -35.111568 -8.142441 -7.495872 -7.471943 1.860684 -7.166935 30.987004 27.310544 -4.510889 83.254651 13.297896 -10.940249 -0.000005 0.000001 0.000001 -4.686456 11.373941 -75.568093 -0.816397 3.074002 -46.874629 -0.000001 -0.000004 0.000000 1.616626 16.582654 -84.688820 0.018009 0.022036 -72.884867 0.000003 0.000000 0.000001 -7.752827 20.788970 -77.688156 0.013355 0.983442 -51.003604 0.000000 0.000000 0.000001 -14.104044 4.086267 -44.357629 0.013566 0.024908 -64.143550 0.000000 -0.000001 -0.000000 9.408119 21.067908 -11.442651 0.000000 0.000000 0.000000 -44.479862 11.089949 78.693410 0.000032 49.790996 1.848493 -28.571591 17.092989 6.703822 9.347165 2.810550 -11.364513 16.169052 -43.266011 15.843558 32.491842 -44.566756 5.661145 0.000002 0.000001 -0.000000 17.076786 -0.396528 31.924345 -0.204413 -0.284214 112.811564 0.000000 0.000000 0.000000 9.205473 -5.035899 102.738080 0.014982 -0.019187 61.018499 -0.000000 -0.000000 -0.000000 5.569147 -8.935222 107.329080 0.547981 -0.005790 41.263690 -0.000000 0.000002 -0.000000 6.511228 -17.148242 98.228010 0.007400 -0.015752 43.845720 0.000000 -0.000002 0.000000 -37.848995 2.097039 7.166265 30.360191 0.330305 2.735848 5.222645 0.035719 -4.042219 -0.394791 -1.284869 -0.208667 -0.000000 -0.000000 -0.000000 -16.252840 -10.479468 -13.856266 32.316576 -11.368589 2.615230 -13.857279 -2.239451 12.724848 -1.177335 0.301218 0.690883 -0.000000 0.000002 0.000000 
1.990423 95.901184 -3.067911 2.295252 -9.348463 -1.736784 21.426228 5.739304 0.629184 2.917134 1.985256 -0.390848 0.000000 0.000000 0.000000 2.916577 2.058882 -0.406592 -4.390912 14.896784 2.706928 5.129830 46.545000 -18.898491 -0.000001 0.000001 -0.000000 1.216788 -33.714487 4.232027 0.000000 0.000000 0.000000 -21.704823 -14.643547 -67.511427 0.000025 -44.942512 -7.663725 -34.862880 -7.769637 -7.870566 -7.471943 1.860687 -7.166932 30.987001 27.310540 -4.510895 83.254651 13.297894 -10.940250 -0.000003 -0.000000 -0.000001 -4.686538 11.373823 -75.565019 -0.816397 3.074002 -46.874632 -0.000001 0.000002 0.000000 1.616617 16.582654 -84.688827 0.018004 0.022017 -72.884880 -0.000001 0.000000 0.000000 -7.746349 20.807551 -77.664080 0.013336 0.983452 -51.003591 0.000000 0.000001 0.000001 -14.195109 4.208189 -44.304808 0.013621 0.024945 -64.268931 -0.000001 0.000001 0.000001 9.352116 20.644023 -11.270548 0.000000 0.000000 0.000000 -44.692151 11.251938 79.128507 -0.000005 49.534202 1.683206 -28.576038 17.304003 6.626679 9.347167 2.810548 -11.364512 16.169054 -43.266011 15.843563 32.491845 -44.566756 5.661146 -0.000001 0.000000 -0.000001 17.076788 -0.396529 31.924342 -0.204414 -0.284215 112.811564 -0.000000 -0.000001 -0.000000 9.205471 -5.035904 102.738073 0.014982 -0.019186 61.018499 0.000000 0.000001 -0.000000 5.569146 -8.935224 107.329080 0.547982 -0.005792 41.263686 0.000000 -0.000002 0.000000 6.511231 -17.148243 98.228010 0.007401 -0.015755 43.845720 -0.000000 -0.000001 -0.000000 -37.893189 2.124766 6.911036 30.539593 0.117585 2.769565 4.991446 0.041870 -3.910443 -0.395702 -1.291660 -0.208758 0.000000 -0.000000 0.000000 -15.853752 -10.513281 -13.926457 32.036719 -11.674624 2.623045 -13.912712 -2.306106 12.974051 -1.223655 0.270141 0.714839 0.000000 -0.000001 -0.000000 
2.067733 95.908417 -2.772582 2.375143 -9.029608 -1.694534 21.376115 5.706384 0.380590 2.896509 2.031294 -0.507783 0.000000 0.000000 0.000000 2.895728 2.104702 -0.524032 -4.533404 14.805553 2.906743 4.596137 46.378822 -18.323984 -0.000000 0.000001 -0.000000 1.196613 -33.968822 4.341382 0.000000 0.000000 0.000000 -21.324033 -14.743431 -67.469135 -0.000002 -45.137069 -7.099061 -34.700168 -7.468995 -8.244134 -7.471944 1.860681 -7.166938 30.986990 27.310540 -4.510897 83.254658 13.297891 -10.940247 -0.000002 0.000001 -0.000001 -4.686611 11.373700 -75.561959 -0.816399 3.074000 -46.874625 0.000001 0.000000 0.000001 1.616608 16.582653 -84.688820 0.018021 0.022040 -72.884874 -0.000000 -0.000001 -0.000000 -7.739919 20.826502 -77.640441 0.013332 0.983455 -51.003604 -0.000000 0.000002 0.000001 -14.286811 4.332721 -44.254117 0.013662 0.024978 -64.395037 0.000000 -0.000000 -0.000004 9.328153 20.301059 -11.130542 0.000000 0.000000 0.000000 -44.882928 11.356065 79.521365 0.000058 49.310616 1.545315 -28.543965 17.504272 6.522292 9.347168 2.810548 -11.364513 16.169047 -43.266011 15.843560 32.491838 -44.566756 5.661141 0.000001 0.000000 -0.000000 17.076788 -0.396531 31.924345 -0.204414 -0.284214 112.811564 0.000000 -0.000001 -0.000000 9.205475 -5.035901 102.738073 0.014983 -0.019185 61.018499 -0.000000 -0.000000 -0.000001 5.569147 -8.935226 107.329080 0.547980 -0.005791 41.263686 -0.000000 0.000001 0.000000 6.511228 -17.148249 98.228010 0.007403 -0.015755 43.845720 -0.000001 0.000000 0.000000 -37.943241 2.164382 6.664019 30.731712 -0.089131 2.805143 4.755431 0.050218 -3.785367 -0.399354 -1.314335 -0.208468 -0.000000 0.000000 -0.000000 -15.478749 -10.531172 -13.996348 31.783794 -11.974883 2.625127 -13.974969 -2.370768 13.219908 -1.198511 0.244103 0.744077 -0.000000 -0.000003 -0.000000 
2.140090 95.909752 -2.481894 2.454770 -8.733479 -1.648202 21.323345 5.665694 0.138138 2.878258 2.069779 -0.624885 0.000000 0.000000 0.000000 2.876963 2.143173 -0.641692 -4.672454 14.693777 3.114029 4.033508 46.222380 -17.716252 0.000001 0.000002 -0.000001 1.177283 -34.220665 4.459810 0.000000 0.000000 0.000000 -20.925121 -14.883122 -67.421207 0.000038 -45.299973 -6.535475 -34.631265 -7.240535 -8.609876 -7.471944 1.860684 -7.166935 30.987001 27.310544 -4.510897 83.254658 13.297891 -10.940247 -0.000003 0.000001 -0.000001 -4.686682 11.373591 -75.558872 -0.816397 3.074003 -46.874629 -0.000001 -0.000001 0.000000 1.616614 16.582653 -84.688820 0.018011 0.022031 -72.884880 0.000000 0.000000 0.000001 -7.733521 20.845768 -77.617218 0.013339 0.983457 -51.003591 -0.000001 -0.000001 0.000001 -14.379073 4.459846 -44.205500 0.013723 0.024997 -64.521915 -0.000001 -0.000002 -0.000002 9.326593 20.046026 -11.021186 0.000000 0.000000 0.000000 -45.044278 11.395504 79.862233 0.000037 49.125360 1.440773 -28.476249 17.693844 6.389413 9.347168 2.810547 -11.364514 16.169052 -43.266018 15.843558 32.491842 -44.566756 5.661145 -0.000002 -0.000000 -0.000001 17.076788 -0.396529 31.924338 -0.204413 -0.284214 112.811557 0.000001 -0.000001 -0.000000 9.205470 -5.035902 102.738073 0.014981 -0.019187 61.018506 -0.000001 -0.000002 -0.000000 5.569147 -8.935223 107.329080 0.547979 -0.005790 41.263690 -0.000000 0.000002 0.000000 6.511228 -17.148242 98.228010 0.007399 -0.015756 43.845720 -0.000000 -0.000001 -0.000000 -37.996933 2.183035 6.425182 30.937550 -0.257046 2.834541 4.514665 0.055666 -3.671633 -0.412891 -1.385389 -0.206847 -0.000000 -0.000000 -0.000000 -15.126998 -10.534926 -14.059850 31.555201 -12.266843 2.617493 -14.042508 -2.436414 13.462464 -1.263120 0.206519 0.771717 -0.000000 -0.000001 0.000000 
